<?xml version="1.0" encoding="UTF-8"?>
<svg id="Layer_1" xmlns="http://www.w3.org/2000/svg" version="1.1" viewBox="0 0 360 360">
  <!-- Generator: Adobe Illustrator 30.7.0, SVG Export Plug-In . SVG Version: 2.1.4 Build 114)  -->
  <defs>
    <style>
      .st0 {
        fill: #fff;
      }
    </style>
  </defs>
  <path class="st0" d="M299.5,108.1s0,0-.1-.2c-1.8-2-4-3-6.5-3s0,0,0,0c-10.1,0-23.7,15.6-32.7,25.9-2.4,2.8-4.6,5.2-6.1,6.7-14.7,16.5-30.6,34-47.7,50.4-2.8,2.6-5.4,5.3-7.9,8-2.8,3-5.8,6.1-8.9,8.9-1.1.9-1.8,1.2-2,1.3,0-1.1,1.3-4.6,2.6-6.8,11.4-19.7,23.8-38.8,34.7-55.7,2.4-3.7,4.9-7.5,7.3-11.1,6.8-10.2,13.8-20.8,19.7-31.8,3.7-5.9,7-11.8,10.6-18,1.1-2,2.3-4,3.5-6,.4-.7.8-1.5,1.3-2.4,3.7-6.7,10-18,7.2-24.9-1-2.4-2.9-4.1-5.8-5h-.2c-12.2-1.8-30.9,2.9-57.1,14.3-11.8,4.9-21.6,9.2-31.1,13.9-1.9.9-2.7,1-3,1,0-.3.3-1.3,1.8-4,9.7-17.2,19.4-36.2,12.6-44.5-4.2-5.1-13.8-5.2-29.5-.2-19.9,6-36,12.2-50.7,19.5l-1.3.7c-10.8,6.2-21.9,12.7-31.9,20.4-2.3,2.1-4.2,4.6-6.2,7.3-1.4,1.9-2.9,3.9-4.5,5.7-3,3.1-9.2,9.6-8.2,14.7.4,1.9,1.8,3.4,4.1,4.5,3.8,1.3,7.3-1.1,10.1-3,1.5-1,3.2-2.2,3.8-1.8.4.2,1.2,1.1,1.4,6.1,1,27.5-1.9,55.3-5.1,83.7-1.5,11.8-3.2,23.7-4.8,35.3l-1,6.7c-.4,2.5-.8,5.2-1.3,7.7-1.3,7.4-2.7,15.1-1.8,22.6.4,3,2.3,5.6,4.6,6.7,1.9.8,3.9.6,5.8-.6,3.7-2.5,4.2-8.1,4.5-12.6v-1.2c.9-7.3,2.1-14.9,3.2-22.3.4-2.5.8-4.9,1.1-7.2.3-1.6.6-3.3.9-4.9.8-4.1,1.6-8.4,2.1-12.6.7-5.9,3-9.6,6.8-11.1,9.4-3.8,18.1-9.6,26.6-15.2,2.4-1.6,4.9-3.3,7.3-4.8,3.7-2.3,7.4-4.8,11-7.2,11.1-7.3,22.6-14.8,34.5-20.7,1.1-.4,1.6-.4,1.8-.4,0,.3,0,1.2-1.9,4.1-4.5,7.1-9.7,14.3-14.7,21.2-2.3,3.2-4.7,6.5-6.9,9.7-11.1,15.8-21.9,32.1-32.4,47.9-14.7,22.2-29.9,45.1-46.1,66.8-1,1.4-2.1,2.8-3.2,4.2-2.6,3.2-5.2,6.4-6.6,10.3-.9,3-.2,5.6,1.9,7.1,2.5,1.7,6.1,1.3,8.8-.9,2.3-1.7,4.1-3.9,5.6-6.1l7.8-11.2c14.6-21.2,29.8-43,44.3-64.6,16.2-24.4,33.6-48.8,48.8-70.3,5.4-7.1,10.9-15.1,15.7-22.1.7-1.2,1.6-2.4,2.6-3.8,3.5-4.9,7.9-10.9,4.9-16.6,0,0,0,0-.1-.2-5.1-6.1-13.9-.8-20.4,3.1-1.7,1-3.3,2-4.7,2.6-12.8,7.2-26.2,15.7-38.7,23.8-8.5,5-16.8,10.3-25.3,16.4-.2.1-.6.4-1,.6-2.7,1.7-4.4,2.6-5,2.6.3-.9,1.7-3.2,3.1-5,1.4-1.9,2.9-3.8,4.3-5.7,2.7-3.6,5.6-7.4,8.4-11,3.9-4.6,7.6-9.5,11.2-14.3,5.8-7.7,11.9-15.7,18.9-22.5,3.1-2.8,6.5-5,10.1-7.3,1.3-.8,2.5-1.6,3.8-2.5,1-.7,2.1-1.4,3.1-2.1,6.7-4.5,13.5-9.2,20.8-12.6,9.2-4,18.7-7.9,28-11.5,4.9-2,10-4,15-6,3.8-1.5,15.3-6.2,17.6-3.5.8.9,1.3,3.7-4.1,12.7-1.5,2.8-2.9,5.6-4.3,8.4-3.5,6.9-6.8,13.3-10.8,19.8h0v.2c-7,11.3-14.3,22.6-21.4,33.6-6.6,10.2-13.4,20.8-19.9,31.4-2.2,3.6-4.5,7.2-6.8,10.7-5.8,9-11.8,18.3-16.4,28.3-3.5,6.5-3.5,13.3-.1,17.4,1.7,2.1,5.9,5.2,14.1,2.6,6.7-2.2,11.8-7.1,16.8-12.4,6.9-7.2,14-14.3,20.9-21.2s11.8-11.8,17.6-17.8c4-4.1,7.8-8.4,11.5-12.6,4.2-4.8,8.6-9.8,13.2-14.3.5-.4,1.4-1.5,2.7-2.9,2.1-2.3,6.8-7.4,8.7-8.5,0,.5-.3,1.4-.9,2.9-6.1,13.5-13.1,26.8-19.9,39.6-2.5,4.7-4.9,9.3-7.3,14-10,19.2-20.1,38.8-29.8,57.7l-5.7,11c-4.9,9.8-10.2,19.6-15.3,29.2-6.3,11.7-12.8,23.9-18.7,36-2.5,5.9-.7,9.5,1.9,11,.9.5,2,.8,3.1.8,2.8,0,6-1.5,8.5-5.1,2-2.9,3.4-6.3,4.7-9.6.8-2,1.6-4,2.5-5.9,2-4.2,4.2-8.4,6.3-12.5,1.2-2.3,2.5-4.6,3.7-7,3.5-6.8,7-13.6,10.5-20.4,16.1-31.2,32.7-63.5,49.7-94.7,2.3-4.3,4.6-8.6,6.9-12.8,6.8-12.5,13.9-25.5,19.6-39.1.5-1.6,1.4-3.5,2.2-5.4,2.7-6.1,5.8-13,2.8-18.4h.3ZM148,91c-1.7,2.1-3.5,4.3-5.1,6.7-1.1,1.7-2.1,3.5-3.1,5.2-1,1.8-2,3.7-3.2,5.4-6.9,9.4-14.3,18.8-21.4,27.8l-.4.5c-5.5,7.1-10.9,13.8-16.3,20.4-.2.2-.5.6-.8,1-2.3,2.8-3.7,4.2-4.2,4.3v-.3c-.5-2.2,0-4.5,0-6.9,0-1,.2-1.9.3-2.9.3-4.2.6-8.4,1-12.5.9-10,1.7-20.3,1.3-30.5,0-4.9,0-9.9.3-14.8,0-1.1,0-2.2,0-3.3,0-2,0-3.9,0-5.7-.3-8.4-.5-14.4,8.1-20.3,13.1-9.6,28.1-16.2,42.3-22.1,7.1-2.9,14.1-4.8,21.9-6.9h.6c3.4-1,6.6-1.5,7.6.8.6,2.2-.8,5.9-1.9,8.8-.2.6-.4,1.1-.6,1.7-3.3,9.1-8.6,17.2-13.8,25.1-1,1.5-2,3.1-3,4.6-.7,1.1-1.5,2.3-2.2,3.4-1.4,2.3-2.9,4.6-4.4,6.7-1,1.3-2.1,2.6-3.1,3.9h0Z"/>
</svg>